<svg width="39" height="41" viewBox="0 0 39 41" fill="none" xmlns="http://www.w3.org/2000/svg">
<path d="M37.0504 29.168V11.168C37.0504 9.50797 35.7439 8.16797 34.1254 8.16797H6.80586C5.18736 8.16797 3.88086 9.50797 3.88086 11.168V29.168C3.88086 30.828 5.18736 32.168 6.80586 32.168H34.1254C35.7439 32.168 37.0504 30.828 37.0504 29.168ZM34.4959 10.948C35.1394 11.608 34.7884 12.288 34.4374 12.628L26.5204 20.068L34.1254 28.188C34.3594 28.468 34.5154 28.908 34.2424 29.208C33.9889 29.528 33.4039 29.508 33.1504 29.308L24.6289 21.848L20.4559 25.748L16.3024 21.848L7.78086 29.308C7.52736 29.508 6.94236 29.528 6.68886 29.208C6.41586 28.908 6.57186 28.468 6.80586 28.188L14.4109 20.068L6.49386 12.628C6.14286 12.288 5.79186 11.608 6.43536 10.948C7.07886 10.288 7.74186 10.608 8.28786 11.088L20.4559 21.168L32.6434 11.088C33.1894 10.608 33.8524 10.288 34.4959 10.948Z" fill="white"/>
</svg>
