<svg width="28" height="30" viewBox="0 0 28 30" fill="none" xmlns="http://www.w3.org/2000/svg">
<path d="M23.5197 8.43318C20.1597 3.06818 13.2997 1.47318 7.97969 4.80818C2.79969 8.14318 1.11969 15.3932 4.47969 20.7582L4.75969 21.1932L3.63969 25.5432L7.83969 24.3832L8.25969 24.6732C10.0797 25.6882 12.0397 26.2682 13.9997 26.2682C16.0997 26.2682 18.1997 25.6882 20.0197 24.5282C25.1997 21.0482 26.7397 13.9432 23.5197 8.43318ZM20.5797 19.5982C20.0197 20.4682 19.3197 21.0482 18.3397 21.1932C17.7797 21.1932 17.0797 21.4832 14.2797 20.3232C11.8997 19.1632 9.93969 17.2782 8.53969 15.1032C7.69969 14.0882 7.27969 12.7832 7.13969 11.4782C7.13969 10.3182 7.55969 9.30318 8.25969 8.57818C8.53969 8.28818 8.81969 8.14318 9.09969 8.14318H9.79969C10.0797 8.14318 10.3597 8.14318 10.4997 8.72318C10.7797 9.44818 11.4797 11.1882 11.4797 11.3332C11.6197 11.4782 11.6197 11.7682 11.4797 11.9132C11.6197 12.2032 11.4797 12.4932 11.3397 12.6382C11.1997 12.7832 11.0597 13.0732 10.9197 13.2182C10.6397 13.3632 10.4997 13.6532 10.6397 13.9432C11.1997 14.8132 11.8997 15.6832 12.5997 16.4082C13.4397 17.1332 14.2797 17.7132 15.2597 18.1482C15.5397 18.2932 15.8197 18.2932 15.9597 18.0032C16.0997 17.7132 16.7997 16.9882 17.0797 16.6982C17.3597 16.4082 17.4997 16.4082 17.7797 16.5532L20.0197 17.7132C20.2997 17.8582 20.5797 18.0032 20.7197 18.1482C20.8597 18.5832 20.8597 19.1632 20.5797 19.5982Z" fill="white"/>
</svg>
