<svg width="33" height="33" viewBox="0 0 33 33" fill="none" xmlns="http://www.w3.org/2000/svg">
<path d="M16.4998 12.0027C14.1344 12.0027 12.204 13.8746 12.204 16.1683C12.204 18.4621 14.1344 20.3339 16.4998 20.3339C18.8652 20.3339 20.7956 18.4621 20.7956 16.1683C20.7956 13.8746 18.8652 12.0027 16.4998 12.0027ZM29.384 16.1683C29.384 14.4433 29.4001 12.7339 29.3002 11.0121C29.2003 9.01206 28.7298 7.23706 27.2216 5.77456C25.7101 4.30894 23.8829 3.85581 21.8204 3.75894C20.0415 3.66206 18.2787 3.67769 16.503 3.67769C14.7241 3.67769 12.9613 3.66206 11.1856 3.75894C9.12313 3.85581 7.29266 4.31206 5.78445 5.77456C4.27303 7.24019 3.80574 9.01206 3.70584 11.0121C3.60594 12.7371 3.62205 14.4464 3.62205 16.1683C3.62205 17.8902 3.60594 19.6027 3.70584 21.3246C3.80574 23.3246 4.27625 25.0996 5.78445 26.5621C7.29588 28.0277 9.12313 28.4808 11.1856 28.5777C12.9645 28.6746 14.7273 28.6589 16.503 28.6589C18.2819 28.6589 20.0447 28.6746 21.8204 28.5777C23.8829 28.4808 25.7134 28.0246 27.2216 26.5621C28.733 25.0964 29.2003 23.3246 29.3002 21.3246C29.4033 19.6027 29.384 17.8933 29.384 16.1683ZM16.4998 22.5777C12.8421 22.5777 9.89012 19.7152 9.89012 16.1683C9.89012 12.6214 12.8421 9.75894 16.4998 9.75894C20.1575 9.75894 23.1095 12.6214 23.1095 16.1683C23.1095 19.7152 20.1575 22.5777 16.4998 22.5777ZM23.3802 10.9933C22.5262 10.9933 21.8365 10.3246 21.8365 9.49644C21.8365 8.66831 22.5262 7.99956 23.3802 7.99956C24.2342 7.99956 24.9238 8.66831 24.9238 9.49644C24.9241 9.69308 24.8843 9.88784 24.8068 10.0696C24.7293 10.2513 24.6156 10.4164 24.4723 10.5554C24.3289 10.6945 24.1586 10.8047 23.9712 10.8799C23.7838 10.955 23.5829 10.9936 23.3802 10.9933Z" fill="white"/>
</svg>
