<svg width="50" height="51" viewBox="0 0 50 51" fill="none" xmlns="http://www.w3.org/2000/svg">
<path d="M50 25.8164C50 39.6235 38.8071 50.8164 25 50.8164C11.1929 50.8164 0 39.6235 0 25.8164C0 12.0093 11.1929 0.816406 25 0.816406C38.8071 0.816406 50 12.0093 50 25.8164Z" fill="#405DBB"/>
<path d="M25.5279 18.8399C25.0319 18.8399 24.6159 18.6719 24.2799 18.3359C23.9439 17.9999 23.7759 17.5839 23.7759 17.0879C23.7759 16.5919 23.9439 16.1759 24.2799 15.8399C24.6159 15.5039 25.0319 15.3359 25.5279 15.3359C26.0079 15.3359 26.4159 15.5039 26.7519 15.8399C27.0879 16.1759 27.2559 16.5919 27.2559 17.0879C27.2559 17.5839 27.0879 17.9999 26.7519 18.3359C26.4159 18.6719 26.0079 18.8399 25.5279 18.8399ZM26.8719 20.5919V33.8159H24.1359V20.5919H26.8719Z" fill="white"/>
</svg>
