<svg width="24" height="24" viewBox="0 0 24 24" fill="none" xmlns="http://www.w3.org/2000/svg">
<circle cx="12" cy="12" r="12" fill="#333333"/>
<path d="M12.2524 8.49586C12.025 8.49586 11.8344 8.41886 11.6804 8.26486C11.5264 8.11086 11.4494 7.9202 11.4494 7.69286C11.4494 7.46553 11.5264 7.27486 11.6804 7.12086C11.8344 6.96686 12.025 6.88986 12.2524 6.88986C12.4724 6.88986 12.6594 6.96686 12.8134 7.12086C12.9674 7.27486 13.0444 7.46553 13.0444 7.69286C13.0444 7.9202 12.9674 8.11086 12.8134 8.26486C12.6594 8.41886 12.4724 8.49586 12.2524 8.49586ZM12.8684 9.29886V15.3599H11.6144V9.29886H12.8684Z" fill="white"/>
</svg>
